<svg width="108" height="113" viewBox="0 0 108 113" fill="none" xmlns="http://www.w3.org/2000/svg">
<path d="M50.7785 1.18932L1.53125 43.7246L2.44963 62.9722C2.44963 65.2657 5.20476 97.8155 7.82535 97.8155L53.8085 66.877L95.2407 94.6399C97.8613 94.6399 102.921 64.3953 102.921 62.096L105.986 43.6776L56.6982 1.18932C54.9609 -0.0162309 52.5099 -0.0162309 50.7785 1.18932Z" fill="#FEB512"/>
<path d="M93.3688 105.496H13.9146C11.797 105.496 10.0831 103.773 10.0831 101.644V20.2786C10.0831 18.1498 11.797 16.4268 13.9146 16.4268H93.3688C95.4863 16.4268 97.2002 18.1498 97.2002 20.2786V101.644C97.2002 103.773 95.4863 105.496 93.3688 105.496Z" fill="#FFF6E2"/>
<path d="M36.4003 68.3122H17.9334C17.2197 68.3122 16.6406 67.73 16.6406 67.0125V48.4471C16.6406 47.7297 17.2197 47.1475 17.9334 47.1475H36.4003C37.114 47.1475 37.6931 47.7297 37.6931 48.4471V67.0125C37.6931 67.73 37.114 68.3122 36.4003 68.3122ZM19.2261 65.707H35.1017V49.7467H19.2261V65.707Z" fill="#FEB512"/>
<path d="M92.9009 63.2312H46.8125C46.0989 63.2312 45.5198 62.649 45.5198 61.9315C45.5198 61.214 46.0989 60.6318 46.8125 60.6318H92.9009C93.6146 60.6318 94.1937 61.214 94.1937 61.9315C94.1995 62.649 93.6204 63.2312 92.9009 63.2312Z" fill="#F5E3B9"/>
<path d="M25.9062 64.1019C25.8945 64.1019 25.8828 64.1019 25.877 64.1019C25.4032 64.0901 24.9703 63.8196 24.7539 63.3962L22.496 58.9681C22.1684 58.3271 22.4199 57.5449 23.0575 57.2156C23.6951 56.8863 24.4731 57.1392 24.8007 57.7802L25.9706 60.0795L30.5976 52.0053C30.9544 51.382 31.7441 51.1703 32.3641 51.529C32.9842 51.8877 33.1947 52.6816 32.8379 53.3049L27.0235 63.455C26.7954 63.8549 26.3684 64.1019 25.9062 64.1019Z" fill="#FEB512"/>
<path d="M69.9767 54.8043H46.8008C46.093 54.8043 45.5139 54.228 45.5139 53.5106C45.5139 52.799 46.0872 52.2168 46.8008 52.2168H69.9767C70.6845 52.2168 71.2636 52.7931 71.2636 53.5106C71.2636 54.2221 70.6903 54.8043 69.9767 54.8043Z" fill="#FEB512"/>
<path d="M36.4003 44.1775H17.9334C17.2197 44.1775 16.6406 43.5953 16.6406 42.8778V24.3123C16.6406 23.5949 17.2197 23.0127 17.9334 23.0127H36.4003C37.114 23.0127 37.6931 23.5949 37.6931 24.3123V42.8778C37.6931 43.5953 37.114 44.1775 36.4003 44.1775ZM19.2261 41.5723H35.1017V25.612H19.2261V41.5723Z" fill="#FEB512"/>
<path d="M81.8862 30.693H46.6487C46.0228 30.693 45.5139 30.1108 45.5139 29.3934C45.5139 28.6759 46.0228 28.0938 46.6487 28.0938H81.8862C82.5121 28.0938 83.021 28.6759 83.021 29.3934C83.021 30.1108 82.5121 30.693 81.8862 30.693Z" fill="#FEB512"/>
<path d="M90.1343 39.1022H46.7365C46.0638 39.1022 45.5139 38.52 45.5139 37.8026C45.5139 37.0851 46.0579 36.5029 46.7365 36.5029H90.1343C90.807 36.5029 91.3568 37.0851 91.3568 37.8026C91.351 38.52 90.807 39.1022 90.1343 39.1022Z" fill="#F5E3B9"/>
<path d="M25.9062 39.9731C25.8945 39.9731 25.8828 39.9731 25.877 39.9731C25.4032 39.9613 24.9703 39.6908 24.7539 39.2674L22.496 34.8392C22.1684 34.1982 22.4199 33.4161 23.0575 33.0867C23.6951 32.7574 24.4731 33.0103 24.8007 33.6513L25.9706 35.9507L30.5976 27.8764C30.9544 27.2531 31.7441 27.0413 32.3641 27.4001C32.9842 27.7588 33.1947 28.5527 32.8379 29.176L27.0235 39.3262C26.7954 39.7261 26.3684 39.9731 25.9062 39.9731Z" fill="#FEB512"/>
<path d="M54.8205 75.892L78.5813 52.3868C84.8227 46.212 93.7315 42.6895 103.079 42.6895C105.273 42.6895 107.057 44.0891 107.057 45.8239V77.8502V108.653C107.057 110.382 104.091 113.011 101.892 113.011H88.3909L54.8205 79.7967C53.6974 78.6853 53.6974 77.0034 54.8205 75.892Z" fill="#FEB512"/>
<path d="M52.7966 75.8509L29.0357 52.3457C22.7943 46.171 13.8854 42.6484 4.53787 42.6484C2.34429 42.6484 0.560181 44.048 0.560181 45.7829V77.8092V108.989C0.560181 110.718 3.11058 113.011 5.30416 113.011L19.2261 112.97L52.7966 79.7616C53.9197 78.6443 53.9197 76.9624 52.7966 75.8509Z" fill="#FEB512"/>
<path d="M107.057 95.7864V109.336C107.057 111.359 104.933 112.999 102.313 112.999H5.30415C2.68356 112.999 0.560181 111.359 0.560181 109.336V95.7864L50.8486 64.8244C51.6676 64.3187 52.6444 64.054 53.6389 64.0305C54.7386 64.0011 55.85 64.2658 56.7625 64.8244L107.057 95.7864Z" fill="#DBBE7B"/>
<path d="M63.2263 67.5303L107.057 90.024L107.051 95.7871L62.4366 68.3124L63.2263 67.5303Z" fill="#FEB512"/>
<path d="M44.3907 67.5303L0.56604 90.024V95.7871L45.1804 68.3124L44.3907 67.5303Z" fill="#FEB512"/>
</svg>
