<svg width="20" height="24" viewBox="0 0 20 24" fill="none" xmlns="http://www.w3.org/2000/svg">
<path d="M4.82999 23.5405C4.35703 23.2258 3.93785 22.837 3.58857 22.389C3.20436 21.9266 2.84838 21.4414 2.52257 20.9362C1.75799 19.8161 1.15838 18.5919 0.742152 17.3011C0.242137 15.8018 0 14.3648 0 12.9592C0 11.3894 0.339591 10.0191 1.00378 8.86759C1.49613 7.9676 2.22002 7.2155 3.10055 6.68912C3.95388 6.15909 4.93437 5.86904 5.93872 5.84951C6.2903 5.84951 6.66887 5.90048 7.07069 5.99794C7.3593 6.07965 7.71089 6.20859 8.14043 6.36902C8.68693 6.57967 8.98754 6.70861 9.08949 6.74009C9.40959 6.85704 9.67871 6.90801 9.89011 6.90801C10.0505 6.90801 10.2769 6.85704 10.5341 6.77907C10.6787 6.7281 10.9516 6.63814 11.3422 6.47097C11.729 6.33003 12.0334 6.20934 12.2755 6.11938C12.6466 6.00993 13.0057 5.90873 13.3258 5.85775C13.7052 5.79793 14.0904 5.78208 14.4735 5.81053C15.1374 5.85392 15.7913 5.99461 16.4143 6.22808C17.4331 6.63814 18.2569 7.27834 18.8702 8.18841C18.611 8.34816 18.3677 8.53242 18.1437 8.73865C17.6562 9.17089 17.2409 9.67831 16.9136 10.2417C16.4858 11.0116 16.2639 11.879 16.2696 12.7598C16.2854 13.8415 16.5627 14.7943 17.1092 15.6182C17.511 16.2288 18.0332 16.7509 18.6438 17.1527C18.9564 17.3634 19.2255 17.508 19.4834 17.6055C19.3627 17.9803 19.2337 18.3432 19.0816 18.703C18.7364 19.5099 18.3181 20.2835 17.8319 21.0142C17.3986 21.6431 17.059 22.1116 16.8011 22.4235C16.3993 22.8995 16.0125 23.2631 15.6219 23.5165C15.1924 23.8013 14.6849 23.9535 14.1691 23.9535C13.8198 23.9669 13.4706 23.9247 13.1346 23.8283C12.846 23.7309 12.5604 23.6252 12.2792 23.5045C11.987 23.3702 11.6856 23.2568 11.3774 23.1649C10.6156 22.9692 9.81675 22.9679 9.05426 23.1611C8.74165 23.2511 8.44104 23.3561 8.14418 23.485C7.72663 23.6604 7.44926 23.7781 7.28883 23.8283C6.96873 23.922 6.63664 23.9805 6.3008 24C5.78129 24 5.29702 23.8516 4.81724 23.551L4.82999 23.5405ZM11.6818 5.08786C11.0026 5.42746 10.3541 5.57214 9.7102 5.52491C9.609 4.87646 9.7102 4.21303 9.97932 3.48662C10.2084 2.8712 10.547 2.30231 10.9786 1.8074C11.4344 1.28641 11.9875 0.859379 12.6068 0.550242C13.2665 0.210651 13.8955 0.0269873 14.4967 0C14.5747 0.679182 14.4967 1.34712 14.2471 2.06903C14.0161 2.70719 13.6781 3.3014 13.2478 3.82621C12.8085 4.34791 12.2695 4.7766 11.6623 5.08712L11.6818 5.08786Z" fill="white"/>
</svg>
